<svg width="26" height="26" viewBox="0 0 26 26" fill="none" xmlns="http://www.w3.org/2000/svg">
<path d="M8.66728 24.2735C9.7541 24.4051 11.1332 24.4051 13.0006 24.4051C14.868 24.4051 16.2471 24.4051 17.3339 24.2735M8.66728 24.2735C7.67574 24.1534 6.92751 23.9237 6.2738 23.4844C6.16388 23.4106 6.05671 23.3327 5.9525 23.251C4.65342 22.2323 4.10166 20.5342 2.99814 17.1379C1.89463 13.7416 1.34287 12.0435 1.7951 10.4558C1.83138 10.3285 1.87231 10.2025 1.91783 10.0781C2.48517 8.52784 3.9297 7.47833 6.81875 5.37931C9.7078 3.2803 11.1523 2.23079 12.802 2.17027C12.9344 2.16541 13.0669 2.16541 13.1992 2.17027C14.8489 2.23079 16.2934 3.2803 19.1825 5.37931C22.0715 7.47833 23.5161 8.52784 24.0834 10.0781C24.1289 10.2025 24.1699 10.3285 24.2061 10.4558C24.6584 12.0435 24.1066 13.7416 23.0031 17.1379C21.8996 20.5342 21.3478 22.2323 20.0487 23.251C19.9445 23.3327 19.8373 23.4106 19.7274 23.4844C19.0737 23.9237 18.3255 24.1534 17.3339 24.2735M8.66728 24.2735V24.1796V20.3879C8.66728 17.9947 10.6074 16.0546 13.0006 16.0546C15.3938 16.0546 17.3339 17.9947 17.3339 20.3879V24.1796V24.2735" stroke="#424242" stroke-width="1.5"/>
</svg>
